<svg id="a848a845-3aea-435b-b0fc-761233ab9919" data-name="Layer 1" xmlns="http://www.w3.org/2000/svg" xmlns:xlink="http://www.w3.org/1999/xlink" width="865.76" height="682.89" viewBox="0 0 865.76 682.89"><g id="e315ec04-bfe9-4cd7-ae1e-75c188939ad8" data-name="freepik--background-complete--inject-125"><rect x="21.29" y="595.27" width="823.19" height="0.41" fill="#ebebeb"/><rect x="707.46" y="621.76" width="54.53" height="0.41" fill="#ebebeb"/><rect x="552.29" y="626.24" width="14.31" height="0.41" fill="#ebebeb"/><rect x="674.22" y="606.48" width="31.59" height="0.41" fill="#ebebeb"/><rect x="107.66" y="609.25" width="71.11" height="0.41" fill="#ebebeb"/><rect x="193.43" y="609.25" width="10.42" height="0.41" fill="#ebebeb"/><rect x="237.74" y="616.19" width="154.23" height="0.41" fill="#ebebeb"/><path d="M411.48,521.84H93.58a9.4,9.4,0,0,1-9.38-9.4V65.56a9.39,9.39,0,0,1,9.38-9.31h317.9a9.4,9.4,0,0,1,9.4,9.4h0V512.44A9.4,9.4,0,0,1,411.48,521.84ZM93.58,56.57a9,9,0,0,0-9,9V512.44a9,9,0,0,0,9,9h317.9a9,9,0,0,0,9-9V65.56a9,9,0,0,0-9-9Z" fill="#ebebeb"/><path d="M767.61,521.84H449.69a9.41,9.41,0,0,1-9.4-9.4V65.56a9.41,9.41,0,0,1,9.4-9.31H767.61A9.39,9.39,0,0,1,777,65.56V512.44A9.39,9.39,0,0,1,767.61,521.84ZM449.69,56.57a9,9,0,0,0-9,9V512.44a9,9,0,0,0,9,9H767.61a9,9,0,0,0,9-9V65.56a9,9,0,0,0-9-9Z" fill="#ebebeb"/><rect x="115.77" y="134.17" width="252.52" height="461.1" fill="#ebebeb"/><rect x="152.8" y="77.8" width="178.47" height="30.59" fill="#fafafa"/><rect x="128.76" y="145.36" width="226.54" height="449.9" fill="#fff"/><path d="M344.46,346.81h-45.1a4.34,4.34,0,0,0-4.36,4.33v0h0a4.36,4.36,0,0,0,4.36,4.36h45.1a4.36,4.36,0,0,0,4.36-4.36h0A4.37,4.37,0,0,0,344.46,346.81Z" fill="#ebebeb"/><rect x="162.63" y="170.29" width="52.49" height="379.92" fill="#ebebeb"/><polygon points="215.12 224.01 162.63 250.25 162.63 314.61 215.12 288.37 215.12 224.01" fill="#f5f5f5"/><polygon points="215.12 301.5 162.63 327.75 162.63 352.39 215.12 326.15 215.12 301.5" fill="#f5f5f5"/><polygon points="215.12 435.42 162.63 461.65 162.63 486.29 215.12 460.05 215.12 435.42" fill="#f5f5f5"/><rect x="406.03" y="108.37" width="343.98" height="364.95" fill="#ebebeb"/><rect x="408.7" y="111.22" width="338.64" height="359.29" fill="#fff"/><rect x="461.69" y="283.78" width="86.99" height="110.9" transform="translate(140.67 826.48) rotate(-87.08)" fill="#f0f0f0"/><rect x="567.56" y="195.65" width="110.9" height="86.99" transform="translate(-23.56 73.98) rotate(-6.67)" fill="#f0f0f0"/><rect x="491.33" y="99.4" width="173.36" height="27.61" rx="12.23" fill="#e6e6e6"/><rect x="497.04" y="109.57" width="161.94" height="14.93" rx="7.23" fill="#fff"/><rect x="438.51" y="153.4" width="145.36" height="114.03" fill="#e6e6e6"/><path d="M458,166.91c-9.32-.31-10.31,5.16-6.67,8.47s39.08,23.16,40.3,29,3.51,14.55,7.1,7.11,10.34-5.45,12.69-11.74c1.65-4.54-15.39-4.94-20.4-8.5C476.28,180.92,463.42,167.11,458,166.91Z" fill="#fff"/><path d="M558.7,253.89c4.18,1.12,4.94-.94,1.28-4.23s-32.93-20.1-34.92-33.22c-.9-5.91-3.5-14.57-7.11-7.13s-10.32,5.46-12.68,11.75c-1.64,4.53,15.4,4.94,20.4,8.48C540.37,239.9,553.41,252.49,558.7,253.89Z" fill="#fff"/><path d="M514,211.53c3.11-3.44-1.2-8.4-7.64-5.5S505.65,220.88,514,211.53Z" fill="#fff"/><path d="M523.33,212c10.24,12.22,38.91,32.32,43,33.79s7.39,8.23-4.53.39-36.68-26.59-38.43-29.75S523.33,212,523.33,212Z" fill="#fff"/><rect x="565.41" y="302.77" width="145.36" height="114.03" fill="#e6e6e6"/><path d="M652.54,319.66c-12.56-.34-6.22,30.66-3.85,48s5.91,37.86,24.83,37,23.34-13.42,19.49-30.38C687.1,348.21,663.82,319.93,652.54,319.66Z" fill="#fff"/><path d="M623.65,319.66c12.54-.34,6.2,30.66,3.85,48s-5.91,37.86-24.83,37-23.34-13.42-19.49-30.38C589.07,348.21,612.34,319.93,623.65,319.66Z" fill="#fff"/><path d="M651.09,344.61a3.63,3.63,0,0,1-1.73-.45c-.61-.34-14.81-8.54-14.81-28.71a3.55,3.55,0,0,1,7.09,0c0,15.89,10.75,22.28,11.21,22.54a3.53,3.53,0,0,1-1.76,6.58Z" fill="#fff"/><path d="M625.1,344.61a3.55,3.55,0,0,1-1.77-6.59c.51-.29,11.22-6.68,11.22-22.54a3.55,3.55,0,0,1,7.09,0c0,20.17-14.21,28.37-14.82,28.72A3.55,3.55,0,0,1,625.1,344.61Z" fill="#fff"/><path d="M665.68,385.78a9.07,9.07,0,1,0,9.09-9h0A9.07,9.07,0,0,0,665.68,385.78Z" fill="#f5f5f5"/><path d="M617.05,350.45c-1.54,4.78-.84,9.25,1.54,10s5.55-2.49,7.08-7.25.84-9.25-1.55-10S618.58,345.69,617.05,350.45Z" fill="#f5f5f5"/></g><path d="M389.49,65.73H290.58a2.79,2.79,0,0,0-2.79,2.79V122a2.79,2.79,0,0,0,2.79,2.79h98.91a2.79,2.79,0,0,0,2.79-2.79V68.52A2.79,2.79,0,0,0,389.49,65.73Zm-2.66,49.68A2.79,2.79,0,0,1,384,118.2H296a2.79,2.79,0,0,1-2.79-2.79V75.11A2.79,2.79,0,0,1,296,72.32h88a2.79,2.79,0,0,1,2.79,2.79Z" fill="#e1e1e1"/><path d="M648.72,579.78a21.23,21.23,0,0,1-21-21.41V375.51h.78V558.37a20.23,20.23,0,1,0,40.46,0V379.91h.78V558.37A21.23,21.23,0,0,1,648.72,579.78Z" fill="#0071f2"/><path d="M664.88,581.57a21.24,21.24,0,0,1-21-21.41V377.3h.78V560.16a20.24,20.24,0,1,0,40.47,0V377.3h.78V560.16A21.24,21.24,0,0,1,664.88,581.57Z" fill="#0071f2"/><path d="M679.61,586a21.23,21.23,0,0,1-21-21.4V381.7h.78V564.56a20.23,20.23,0,1,0,40.46,0V372.19h.78V564.56A21.23,21.23,0,0,1,679.61,586Z" fill="#0071f2"/><path d="M589.43,363.38l-17.63-6.55s-4.57-1,0-6.53l17.69-31.22a5.56,5.56,0,0,1,4.84-2.83h49.8a7.7,7.7,0,0,1,3,.59l14.22,5.91-49,.42s-3.27-1.33-6.26,4.38l-15.88,31.27S588.49,360.24,589.43,363.38Z" fill="#e1e1e1"/><path d="M589.88,358.42l17-32.39a6.13,6.13,0,0,1,5.44-3.28h49a5.92,5.92,0,0,1,5.93,5.93v6.87L641.75,330l-30.4,4.58s-5.39-1.24-5.88,7.19L604.16,364H593.38S586.51,365.89,589.88,358.42Z" fill="#bcbec0"/><path d="M556.35,365.89h19.81a2.36,2.36,0,0,1,2.36,2.36V430a2.36,2.36,0,0,1-2.36,2.36H556.35a0,0,0,0,1,0,0V365.89A0,0,0,0,1,556.35,365.89Z" fill="#e1e1e1"/><path d="M482.52,126.81h40.94a16.43,16.43,0,0,1,16.43,16.43v173l16.46-1.41L557,150.18a38.45,38.45,0,0,0-38.45-38.6h-46L377.85,30a13,13,0,0,0-8.54-3.17H348.18V43a26.4,26.4,0,0,1,26,1l89.72,82.36Z" fill="#e1e1e1"/><path d="M462.2,352.33h94.14a0,0,0,0,1,0,0V616.77a2.54,2.54,0,0,1-2.54,2.54H462.2a0,0,0,0,1,0,0v-267A0,0,0,0,1,462.2,352.33Z" fill="#e1e1e1"/><rect x="237.14" y="481.13" width="2.2" height="18.48" transform="translate(-197.3 162.46) rotate(-27.11)" fill="#d1d3d4"/><path d="M240.14,497h27.57a0,0,0,0,1,0,0v21.77a0,0,0,0,1,0,0H240.14a1.91,1.91,0,0,1-1.91-1.91v-18A1.91,1.91,0,0,1,240.14,497Z" fill="#939598"/><path d="M262.28,497.76s-2,37.63,5.43,46.43v11s24.76,5.76,38.16,4l48.58,36.94L218.81,622.56s5.26,5.85,15.21,5.7H373.18l80.08-72-24.55-77Z" fill="#939598"/><path d="M500.71,557v71.25H373.18s-21.51,1.1-10.23-15.14c0,0,43-63.88,127.42-66.29A10.14,10.14,0,0,1,500.71,557Z" fill="#a7a9ac"/><rect x="468.78" y="474.61" width="123.96" height="28.19" rx="4.62" transform="translate(50.5 -49.71) rotate(5.63)" fill="#d1d3d4"/><rect x="461.75" y="490.99" width="10.91" height="137.27" fill="#d1d3d4"/><rect x="241.8" y="467.82" width="219.13" height="28.19" rx="4.62" transform="translate(-9.39 6.99) rotate(-1.12)" fill="#d1d3d4"/><path d="M360.46,492.83l-98.37,10.78s-5,45.26,14.73,45.26L367,521Z" fill="#a7a9ac"/><path d="M376,553.75l-7-25.6-94.8,28.38a14.37,14.37,0,0,1-6.48-4.24s-3.17,35,6.48,34.32C274.19,586.61,335.18,586.59,376,553.75Z" fill="#a7a9ac"/><path d="M405.38,463.33H524.73a5.22,5.22,0,0,1,5.22,5.22v21.39a5.22,5.22,0,0,1-5.22,5.22H405.38a0,0,0,0,1,0,0V463.33A0,0,0,0,1,405.38,463.33Z" fill="#808285"/><path d="M356.12,308.84A12.61,12.61,0,0,0,355,322s.56,4.06,3.68,4.4C358.68,326.43,358.68,312.1,356.12,308.84Z" fill="#f7a48b"/><path d="M365.48,302.21l5,5.79a4.87,4.87,0,0,1,1.18,3.73l-1.22,9.53-3-5s2.78.06.5-3.7l-7.28-8.41-2-4.18s1.72.23,3.33.42A5.44,5.44,0,0,1,365.48,302.21Z" fill="#f9b499"/><path d="M355.23,305.69s-3,.32-3.62-1.8c0,0,0-3.27,3.62-1.87A9,9,0,0,0,355.23,305.69Z" fill="#f7a48b"/><path d="M368.05,317.77a2.34,2.34,0,0,1-1.82-.86l-18.51-22.65a2.34,2.34,0,0,1,3.63-3L369.86,314a2.34,2.34,0,0,1-1.81,3.82Z" fill="#2f2e41"/><image width="82" height="161" transform="translate(354.95 299.76) scale(0.24)" xlink:href="Healthcare%20And%20Medical%20Illustration%20Pack1.png"/><path d="M363,346.93s31.37,48.79,48.27,59.92a6.92,6.92,0,0,0,9.09-1.28c4.28-5,12.81-16.68,27.5-43.3,0,0-4.89-38.28-2.26-53.43,0,0-4.88-.56-16.3,26.66l-16.14,35.37a2,2,0,0,1-3.36.42l-29.56-36.8Z" fill="#0071f2"/><path d="M363,346.93s31.37,48.79,48.27,59.92a6.92,6.92,0,0,0,9.09-1.28c4.28-5,12.81-16.68,27.5-43.3,0,0-4.89-38.28-2.26-53.43,0,0-4.88-.56-16.3,26.66l-16.14,35.37a2,2,0,0,1-3.36.42l-29.56-36.8Z" fill="#fff" opacity="0.8"/><path d="M441.8,372.93s-6.6-45.88,3.75-64.09c0,0-3.46,28.51,2.26,53.43Z" opacity="0.1"/><path d="M519.18,305.71h26.51a17.39,17.39,0,0,1,17.32,19L552.38,438.56a18.71,18.71,0,0,1-18.62,17H508.59S503.52,338.76,519.18,305.71Z" fill="#808285"/><path d="M459.77,299.39s-16.74,4.82-14.78,14c0,0-3.27,26.15,3.27,50.66,0,0,10.13,29.75-7.85,66.68,0,0-75.28,1.53-84,8.83,0,0-6.53,2.5-4.36,23L356,485.18,426.14,493l.87-6.54s83.24,14.82,85.85-35.3c0,0,6.1-15.25,0-51,0,0-1.91-22,3.19-36.73,0,0-5.8-20.57-13.21-27.66s-38.52-37.27-38.52-37.27Z" fill="#0071f2"/><path d="M459.77,299.39s-16.74,4.82-14.78,14c0,0-3.27,26.15,3.27,50.66,0,0,10.13,29.75-7.85,66.68,0,0-75.28,1.53-84,8.83,0,0-6.53,2.5-4.36,23L356,485.18,426.14,493l.87-6.54s83.24,14.82,85.85-35.3c0,0,6.1-15.25,0-51,0,0-1.91-22,3.19-36.73,0,0-5.8-20.57-13.21-27.66s-38.52-37.27-38.52-37.27Z" fill="#fff" opacity="0.8"/><path d="M464.32,298.54l3.42,79.67,33-79.67s-12.73-1.44-18.83-1.12C481.88,297.42,471.15,297.65,464.32,298.54Z" fill="#0071f2"/><path d="M453.39,319.79l6.38-20.4,4.55-.85,3.42,79.67-10-42.11,2.86-7.06a2.47,2.47,0,0,0-1.11-3.11l-4.7-2.59A3,3,0,0,1,453.39,319.79Z" fill="#0071f2"/><path d="M453.39,319.79l6.38-20.4,4.55-.85,3.42,79.67-10-42.11,2.86-7.06a2.47,2.47,0,0,0-1.11-3.11l-4.7-2.59A3,3,0,0,1,453.39,319.79Z" opacity="0.2"/><polygon points="467.74 378.21 502.84 335.81 500.71 327.56 510.99 321.02 505.01 298.54 500.71 298.54 467.74 378.21" fill="#0071f2"/><polygon points="467.74 378.21 502.84 335.81 500.71 327.56 510.99 321.02 505.01 298.54 500.71 298.54 467.74 378.21" opacity="0.2"/><path d="M505,411.05s-1.67-41.21,7.23-58.72l3.82,11.14s-6.31,18.22-2.28,42.49Z" opacity="0.1"/><path d="M356,485.18A103.08,103.08,0,0,0,360.46,497s51.08,15.41,68.25,15l-2.57-19Z" fill="#0071f2"/><polygon points="477.7 428.52 485.87 441.36 490.52 438.25 482.52 426.59 477.7 428.52" fill="#0071f2"/><path d="M457.35,429.82l2.13.33a49.24,49.24,0,0,0-8.06,7.09c-1.39,1.51-3.91,2.71-3.58,4.41.74,3.87,8.37-2.12,8.37-2.12l-2.4,2.45c-2,3.35,2,2.23,2,2.23,3.08,1.76,6.45-.14,8.32-1.57a4,4,0,0,1,3.55-.65c11.56,3.12,18.23-.63,18.23-.63l-8.17-12.84a15.65,15.65,0,0,1-6.31-1.93,27.49,27.49,0,0,0-8.64-1.61,15.5,15.5,0,0,0-5.35.94c-3.39,1.19-9.63,3.92-8.59,7.51C448.81,433.43,450.26,436.48,457.35,429.82Z" fill="#f9b499"/><line x1="457.9" y1="438.38" x2="463.29" y2="432.34" fill="none" stroke="#f7a48b" stroke-miterlimit="10"/><path d="M455.77,444.21s7.75-6.48,12-5.83" fill="none" stroke="#f7a48b" stroke-miterlimit="10"/><polygon points="362.95 339.87 365.58 345.03 378.54 335.68 375.82 331.47 362.95 339.87" fill="#2166bf"/><path d="M360.46,497s28.8,105.15,36.31,131.56a9.14,9.14,0,0,1-1.24,7.65L387,648.85s18.71-1.5,26.77-15L398.87,507.3Z" fill="#f9b499"/><path d="M438.11,603.46,403,542.83l-4.13-35.53,20.61,4,36.29,92s-2.94,13.4-24.84,21.24l7.34-14.15A7.19,7.19,0,0,0,438.11,603.46Z" fill="#f9b499"/><path d="M430.93,624.52s-16.67,7.85-7.84,10.79c0,0,14.44,1.88,38.39-20.8a2.35,2.35,0,0,0,.28-3.07l-6-8.16S453.81,615.7,430.93,624.52Z" fill="#0071f2"/><path d="M385.11,649.19s-17.91,4.33-9.85,9c0,0,13.76,4.75,41.79-12.65a2.36,2.36,0,0,0,.89-2.95l-4.22-9.2S409.3,645.15,385.11,649.19Z" fill="#0071f2"/><polygon points="398.87 507.3 405.38 508.75 403 542.83 398.87 507.3" fill="#f7a48b"/><rect x="119.43" y="391.81" width="192.06" height="25.47" rx="4.02" transform="translate(481.77 31.51) rotate(63.56)" fill="#d1d3d4"/><path d="M239,480.45,164.9,330.74a6.93,6.93,0,0,0-10.06-2.7h0A7,7,0,0,0,152.5,337L228.78,485.6a5.7,5.7,0,0,0,8,2.31h0A5.71,5.71,0,0,0,239,480.45Z" fill="#a7a9ac"/><path d="M578.52,390s16.49-3.74,14.86-26h10.78s1,3.27,5.23,3.27c0,0-1.37,33.67-30.87,37.92Z" fill="#d1d3d4"/><path d="M605.47,341.8c-.33-8.5,5.88-7.19,5.88-7.19l30.4-4.58,68,14.71-26.8,3.92c-8.5.33-7.84,6.54-7.84,6.54l-2,25.42-63.74-13.33c-3.92.66-5.23-3.27-5.23-3.27Z" fill="#e1e1e1"/><path d="M709.73,344.74s2.62-1,4.58,4.58l6.24,14.92a4.47,4.47,0,0,1-2.89,6L678,381.69s-5.1,1.4-4.9-1.07l2-25.42s-.66-7.52,7.84-6.54Z" fill="#bcbec0"/><rect x="332.17" y="24.12" width="16.01" height="50.72" rx="1.46" fill="#bcbec0"/><circle cx="340.18" cy="122.39" r="39.06" fill="#bcbec0"/><circle cx="340.18" cy="122.39" r="32.11" opacity="0.2"/><circle cx="340.18" cy="122.39" r="15.45" fill="#fff" opacity="0.2"/><circle cx="471.6" cy="119.82" r="14.66" fill="#bcbec0"/><circle cx="471.6" cy="119.82" r="7.95" opacity="0.2"/><path d="M627.73,335.26H629a1.1,1.1,0,0,1,1.1,1.1v8.31a0,0,0,0,1,0,0h-3.43a0,0,0,0,1,0,0v-8.31A1.1,1.1,0,0,1,627.73,335.26Z" fill="#0071f2"/><path d="M643.64,337.05h1.23a1.1,1.1,0,0,1,1.1,1.1v8.31a0,0,0,0,1,0,0h-3.43a0,0,0,0,1,0,0v-8.31a1.1,1.1,0,0,1,1.1-1.1Z" fill="#0071f2"/><path d="M658.37,341.76h1.23a1.1,1.1,0,0,1,1.1,1.1v8.31a0,0,0,0,1,0,0h-3.43a0,0,0,0,1,0,0v-8.31A1.1,1.1,0,0,1,658.37,341.76Z" fill="#0071f2"/><path d="M155.37,327.81l-9.16-15.53a9.56,9.56,0,0,1-1.09-7l6-26H162v1.56h-9.62l-5.72,24.8a8,8,0,0,0,.91,5.91L156.72,327Z" fill="#d1d3d4"/><rect x="160.45" y="263.54" width="5.53" height="27.64" transform="translate(25.78 -13.64) rotate(5.19)" fill="#939598"/><path d="M163.71,299.55l3.58-45a6.41,6.41,0,0,1,7-5.87h0a6.4,6.4,0,0,1,5.78,6.91l-3.75,45a6.33,6.33,0,0,1-7,5.77h0A6.33,6.33,0,0,1,163.71,299.55Z" fill="#a7a9ac"/><path d="M180.08,255.6s4.41-9.71,11.27,0c6.11,8.65,9.89,31.34,10.65,42.45a14.79,14.79,0,0,1-2.18,9.12c-2.26,3.45-6.48,6.6-14,2.93,0,0-7.17-4.33-9.47-9.52Z" fill="#d1d3d4"/><path d="M505,298.54s20.38-4.24,25.61,17.71c0,0,15.36,52.68,19.28,82.75,0,0,7.73,14.38-22.44,24.18L491.4,439.53l-10.1-14.71L528,397.69l-13.44-38.44a99.11,99.11,0,0,0-9.3-19.5l-2.43-3.94-2.13-8.25L511,321Z" fill="#0071f2"/><path d="M505,298.54s20.38-4.24,25.61,17.71c0,0,15.36,52.68,19.28,82.75,0,0,7.73,14.38-22.44,24.18L491.4,439.53l-10.1-14.71L528,397.69l-13.44-38.44a99.11,99.11,0,0,0-9.3-19.5l-2.43-3.94-2.13-8.25L511,321Z" fill="#fff" opacity="0.8"/><path d="M469.2,284.19v22.64s0,15.36,15.34,6.86A19.73,19.73,0,0,0,494,296l-.61-22.32Z" fill="#f9b499"/><path d="M469.2,284.19v8.26s16.4,4.39,24.2-18.73Z" fill="#f7a48b"/><path d="M464.65,281.91s-9,1-14.52-6.77a13.77,13.77,0,0,1-1.6-12.29l.05-.15a11.9,11.9,0,0,0,1.24-5.86A17.09,17.09,0,0,0,446,246.63c-2.89-3.75-7.07-11.75-1.34-22.28,0,0,5.23-7.41,13.95-5.23,0,0,4.35-14.38,29.19-12.85,0,0,12.75-.44,26.48,19.83,0,0,6.54,12.09,13.4,14.7,0,0,8.82,5.56,5.88,14.06a12.45,12.45,0,0,1-8.82,9.8s-3.6,22.82-24,17.29c0,0-4.33-1.13-7.31-8.23Z" fill="#2f2e41"/><ellipse cx="475.17" cy="253.17" rx="23.75" ry="32.09" fill="#f9b499"/><path d="M452.63,243s4.12-14.66,13.28-5.83c0,0,9,6.36,18.63,1.5,0,0,9.47-1.93,9.47,4.33,0,0,2.4,5.68,7.41,4.66l1.42-20.62-31.38-15-20,20.92Z" fill="#2f2e41"/><ellipse cx="500.71" cy="253.17" rx="7.19" ry="4.41" transform="translate(199.65 726.63) rotate(-84.37)" fill="#f9b499"/><path d="M291.14,539.27l1.23,10.1,3.64,4.36s-1.22-5.28,1.39-6.58c0,0,4.36-2.36,8.27-1.27L304,537.53Z" fill="#f9b499"/><path d="M323.2,538.64l-.33,7s7.19,5.32,9.81.91c0,0-.16-4,3.59-3v-6.64Z" fill="#f9b499"/><path d="M262.08,356.76s11.52-8,20-8.95c0,0,30.68-3.67,39.51,8.95l6.53,87.8s-42.81,2-64.06,1.63l1.31-53.27Z" fill="#0071f2"/><path d="M264,446.19l17.4,0s-3.8-66.37-9.29-77.16c0,0,2.24,6-3.42,33.22l-3.59-.77Z" opacity="0.1"/><path d="M321.57,356.76s9.58,2.6,17.21,30.49l-14.35,8Z" fill="#0071f2"/><path d="M321.57,356.76s9.58,2.6,17.21,30.49l-14.35,8Z" fill="#fff" opacity="0.2"/><path d="M335.8,388.92l4.56,40.28s3.13,11.44-4.56,14.05l-8.06-3.6-3.31-44.37Z" fill="#f9b499"/><path d="M264,446.19s-2,21,9.95,23h50.44l3.67-24.65Z" fill="#2f2e41"/><path d="M264,446.19s-2,21,9.95,23h50.44l3.67-24.65Z" opacity="0.1"/><path d="M305.67,537.22c0-17.38-6.33-72.18-6.33-72.18-1.53-20.48-14.82-17.65-14.82-17.65-9.15-1.09-11.78,6.36-11.78,6.36-6,11.5,16,86.69,16,86.69Z" fill="#2f2e41"/><path d="M321.57,538.85l17.48-2.28,5.39-77.41s.47-13.29-8.81-14.6c0,0-17.33-3.05-17.55,22.22Z" fill="#2f2e41"/><path d="M292.37,549.37s-2.51,4.19,10.24,16.29c0,0,3.43,2.77,6.86,1.63,0,0,8.9-1.18-4-22.26,0,0-12.2-1.82-9.49,8.7Z" fill="#0071f2"/><path d="M319.92,550.13l2.95-4.5s5.3,3.7,8.65,1.87a2.68,2.68,0,0,0,1.27-1.85c.25-1.25,1-3.26,3.48-2.08,0,0,4.39-1,2,4.55a1.49,1.49,0,0,0,.46,1.76c2.55,2.07,9.29,8.06,7.26,12.37a2.32,2.32,0,0,1-3.16.92l-22.47-11.52A1.06,1.06,0,0,1,319.92,550.13Z" fill="#0071f2"/><path d="M281.44,342.1l.59,10.2a1.76,1.76,0,0,0,.38,1,24.89,24.89,0,0,0,13.9,8.4s6.6,1,7.57-5.16L303,345.82S294,350.81,281.44,342.1Z" fill="#f9b499"/><path d="M282,352.3l-.59-10.2s9.3,6.27,19.13,4.73C300.57,346.83,294.9,355.38,282,352.3Z" fill="#f7a48b"/><ellipse cx="290.78" cy="316.28" rx="22.83" ry="32.08" transform="translate(-82.63 103.79) rotate(-17.76)" fill="#f9b499"/><ellipse cx="268.73" cy="326.35" rx="4.79" ry="7.1" transform="translate(-97.6 115.35) rotate(-20.59)" fill="#f9b499"/><path d="M264.43,321.3s-1.19-3.52-2.79-7.53c0,0-8.22-15,0-23.66,0,0,27.87-17.44,38.29-9,0,0,11.83,12.83,2.81,16.24,0,0-13,2.59-23.16,1.36a7.58,7.58,0,0,0-7.31,3.51c-1.92,3.08-3.34,8.59-2,18.4C270.31,320.6,266.57,317.47,264.43,321.3Z" fill="#2f2e41"/><path d="M305.24,295.61s2-2,0-6.53c0,0,6.54-3.91,7.83,7.21s-.35,13.66-.35,13.66S311.65,304.82,305.24,295.61Z" fill="#2f2e41"/><path d="M244.87,397.22l23.86,5.07s9.69-38.13-2.07-44c0,0-10.68-8.28-16.35,14C250.31,372.22,246.17,388.88,244.87,397.22Z" fill="#0071f2"/><path d="M244.87,397.22l23.86,5.07s9.69-38.13-2.07-44c0,0-10.68-8.28-16.35,14C250.31,372.22,246.17,388.88,244.87,397.22Z" fill="#fff" opacity="0.2"/><path d="M321.57,441.94s-.3-4.7,2.86-4.41c0,0,1.88-.17,1.88,2.2,0,0,2.83-2.33,3.86,1,0,0,1.92-1.41,2.7,1.2,0,0,2.61-2.28,2.93,1.31,0,0-.93,9.85-3.09,9.19,0,0-1.82,0-.93-5.18,0,0-1,5.5-3.34,4,0,0-.8-.4-.34-4.28,0,0-1.13,5.39-3.67,3.27,0,0-3.51,2.52-2.87-1.47l-.08-4.08s-7.27,1.46-5.31-.82Z" fill="#f9b499"/><path d="M300.23,448.08c.49-.33.94-.92-.24-3.36,0,0-8.72-14.17-18.55-6.53,0,0-15.41-7.19-16.81-15.85l.51-20.82L248.53,398l-1.23,20.65s-1.48,9.1,8.36,17.22c0,0,7.63,8.61,23.62,12.3a26.23,26.23,0,0,0,8.36,2.21s4.32,4.92,7.45,2.46a4,4,0,0,0,3.76.69s1.63-.95-.82-3.24c0,0-7.48-9.37-5.27-8a33.42,33.42,0,0,1,5.74,4.95S299.52,448.55,300.23,448.08Z" fill="#f9b499"/><line x1="324.43" y1="450.28" x2="325.82" y2="441.33" fill="none" stroke="#f7a48b" stroke-miterlimit="10"/><line x1="328.1" y1="447.01" x2="329.42" y2="441.74" fill="none" stroke="#f7a48b" stroke-miterlimit="10"/><line x1="331.78" y1="447.26" x2="333.02" y2="443.25" fill="none" stroke="#f7a48b" stroke-miterlimit="10"/><line x1="295.09" y1="452.83" x2="288.69" y2="445.95" fill="none" stroke="#f7a48b" stroke-miterlimit="10"/><rect x="624.43" y="342.13" width="7.84" height="33.39" rx="1.29" fill="#0071f2"/><rect x="624.43" y="342.13" width="7.84" height="33.39" rx="1.29" fill="#fff" opacity="0.3"/><rect x="640.33" y="343.92" width="7.84" height="33.39" rx="1.29" fill="#0071f2"/><rect x="640.33" y="343.92" width="7.84" height="33.39" rx="1.29" fill="#fff" opacity="0.3"/><rect x="655.06" y="348.62" width="7.84" height="33.39" rx="1.29" fill="#0071f2"/><rect x="655.06" y="348.62" width="7.84" height="33.39" rx="1.29" fill="#fff" opacity="0.3"/><path d="M348.7,292.51c-.27-.29-6.69-7.12-6.15-12.26a4.82,4.82,0,0,1,2.2-3.6l.44.64a4,4,0,0,0-1.86,3c-.51,4.79,5.87,11.57,5.93,11.64Z" fill="#2f2e41"/><path d="M346.84,278.49a3,3,0,1,1,3-3A3,3,0,0,1,346.84,278.49Zm0-5.29a2.26,2.26,0,1,0,2.25,2.25A2.25,2.25,0,0,0,346.84,273.2Z" fill="#2f2e41"/><g id="b0dc4dec-0c20-470c-b244-c85c3ccc3866" data-name="freepik--Flower--inject-125"><path d="M101,540.61c-.2-28.69,8.35-132.81,30.21-164.78a.74.74,0,0,1,1-.18.72.72,0,0,1,.19,1c-21.36,31.22-30.22,136.34-30,164h0a.73.73,0,0,1-.72.73h0A.73.73,0,0,1,101,540.61Z" fill="#0071f2"/><path d="M93.92,639.46h15.51c7,0,12.27-72.19,0-105.76H93.92C81.66,567.27,86.93,639.46,93.92,639.46Z" fill="#2f2e41"/><path d="M136.88,388.11s-2.47,6.88-5.82,9.2-5.87,1.71-7.21-.15-.94-4.47,2.36-6.8S136.88,388.11,136.88,388.11Z" fill="#0071f2"/><path d="M107.8,410.86s5.71,4.58,6.82,8.48-.25,6.11-2.51,6.75-4.56-.53-5.66-4.44S107.8,410.86,107.8,410.86Z" fill="#0071f2"/><path d="M121.81,443.33s-1,7.26-3.82,10.21-5.38,2.89-7.08,1.3-1.86-4.18.92-7.13S121.81,443.33,121.81,443.33Z" fill="#0071f2"/><path d="M95.82,483.6s6.38,3.82,7.93,7.56.51,6.1-1.65,7-4.54.05-6.19-3.69S95.82,483.6,95.82,483.6Z" fill="#0071f2"/><path d="M132.17,369.88c-3.34-.62-3.77-2.94-3.64-5.46s-.36-5.55,1.78-5.68c4.13-.18,10.11,7.16,7.42,9.7C136.45,369.7,135.51,370.51,132.17,369.88Z" fill="#0071f2"/><path d="M132.17,369.88c-3.34-.62-3.77-2.94-3.64-5.46s-.36-5.55,1.78-5.68c4.13-.18,10.11,7.16,7.42,9.7C136.45,369.7,135.51,370.51,132.17,369.88Z" opacity="0.2" style="isolation:isolate"/><path d="M133.67,370.59c2.61,2.18,4.57.89,5.79-1.33s5.25-2.6,4-4.35c-2.33-3.29-12-3.22-12.2.46C131.13,367.13,131.05,368.42,133.67,370.59Z" fill="#0071f2"/><path d="M131.48,375.07c3.45,2.86,6.14,1.3,8.62-.91s5.93-4.29,4.28-6.58c-3.17-4.33-15.77-4.33-16.1.61C128.13,370.51,128,372.21,131.48,375.07Z" fill="#407bff"/><path d="M131.48,375.07c3.45,2.86,6.14,1.3,8.62-.91s5.93-4.29,4.28-6.58c-3.17-4.33-15.77-4.33-16.1.61C128.13,370.51,128,372.21,131.48,375.07Z" opacity="0.2" style="isolation:isolate"/><path d="M129.42,374.13c-4.41-.82-4.73-3.92-3.51-7s-1.76-7.53,1.06-7.69c5.46-.38,13.41,9.5,9.87,12.79C135.15,373.8,133.83,375,129.42,374.13Z" fill="#407bff"/><path d="M131.48,375.07c3.45,2.86,6.14,1.3,8.62-.91s5.93-4.29,4.28-6.58c-3.17-4.33-15.77-4.33-16.1.61C128.13,370.51,128,372.21,131.48,375.07Z" fill="#0071f2"/><path d="M131.48,375.07c3.45,2.86,6.14,1.3,8.62-.91s5.93-4.29,4.28-6.58c-3.17-4.33-15.77-4.33-16.1.61C128.13,370.51,128,372.21,131.48,375.07Z" opacity="0.2" style="isolation:isolate"/><path d="M129.42,374.13c-4.41-.82-4.73-3.92-3.51-7s-1.76-7.53,1.06-7.69c5.46-.38,13.41,9.5,9.87,12.79C135.15,373.8,133.83,375,129.42,374.13Z" fill="#0071f2"/><path d="M127.48,379.93c-5.08-.89-5.65-4.4-5.52-8.23s-.59-8.43,2.7-8.63c6.19-.38,15.34,10.86,11.26,14.72C134,379.58,132.55,380.82,127.48,379.93Z" fill="#0071f2"/><path d="M127.48,379.93c-5.08-.89-5.65-4.4-5.52-8.23s-.59-8.43,2.7-8.63c6.19-.38,15.34,10.86,11.26,14.72C134,379.58,132.55,380.82,127.48,379.93Z" opacity="0.2" style="isolation:isolate"/><path d="M129.76,381.06c4,3.31,7,1.27,8.81-2s8-4,6-6.59c-3.7-5-18.16-4.89-18.52.71C125.91,375.81,125.8,377.75,129.76,381.06Z" fill="#0071f2"/></g></svg>